<svg width="48" height="48" viewBox="0 0 48 48" fill="none" xmlns="http://www.w3.org/2000/svg">
<path d="M24.4706 46.1179C36.9457 46.1179 47.0588 36.0048 47.0588 23.5296C47.0588 11.0545 36.9457 0.941406 24.4706 0.941406C11.9954 0.941406 1.88232 11.0545 1.88232 23.5296C1.88232 36.0048 11.9954 46.1179 24.4706 46.1179Z" fill="#FF0000"/>
<path d="M15.1106 27.2584L18.485 22.3918C22.6723 21.06 25.9898 20.9864 29.4651 22.5265L32.7592 27.4588L38.0454 29.9341L41.8354 26.236C42.9748 25.1242 42.9532 23.3073 41.6839 22.3468C38.5148 19.9489 32.2868 16.0719 25.0529 15.9832C17.4562 15.8899 10.2906 19.6249 6.59564 21.9357C5.16874 22.8281 5.02069 24.7649 6.19593 25.9693L9.72989 29.5911L15.1106 27.2584Z" stroke="black" stroke-width="1.5" stroke-linecap="round" stroke-linejoin="round"/>
</svg>
